<?xml version="1.0" encoding="UTF-8"?>
<svg version="1.1" xmlns="http://www.w3.org/2000/svg" width="465" height="188">
<path d="M0 0 C153.45 0 306.9 0 465 0 C465 62.04 465 124.08 465 188 C311.55 188 158.1 188 0 188 C0 125.96 0 63.92 0 0 Z " fill="#120822" transform="translate(0,0)"/>
<path d="M0 0 C0.83265381 0.00523682 1.66530762 0.01047363 2.52319336 0.01586914 C3.42231445 0.0190918 4.32143555 0.02231445 5.24780273 0.02563477 C6.66609375 0.03820313 6.66609375 0.03820313 8.11303711 0.05102539 C9.06243164 0.05553711 10.01182617 0.06004883 10.98999023 0.06469727 C13.34356776 0.07652429 15.69702188 0.09300514 18.05053711 0.11352539 C21.88168167 10.75844306 25.61072757 21.43760901 29.32583618 32.12347412 C33.95376279 45.43012154 38.5875414 58.73398464 43.36303711 71.98852539 C43.71720703 72.97183838 44.07137695 73.95515137 44.4362793 74.96826172 C46.20542815 79.87075929 46.20542815 79.87075929 48.15283203 84.70385742 C49.05053711 87.11352539 49.05053711 87.11352539 49.05053711 90.11352539 C43.11053711 90.11352539 37.17053711 90.11352539 31.05053711 90.11352539 C27.67789963 82.32156983 26.01723602 75.63588735 24.05053711 67.11352539 C13.16053711 67.11352539 2.27053711 67.11352539 -8.94946289 67.11352539 C-9.60946289 70.08352539 -10.26946289 73.05352539 -10.94946289 76.11352539 C-12.20340677 80.47487035 -13.58266335 84.78532686 -14.94946289 89.11352539 C-20.55946289 89.11352539 -26.16946289 89.11352539 -31.94946289 89.11352539 C-30.49945991 81.93077867 -28.42383999 75.11240477 -26.07446289 68.17602539 C-25.49378052 66.44654663 -25.49378052 66.44654663 -24.90136719 64.68212891 C-21.11545043 53.47287507 -17.16784124 42.32085709 -13.20654297 31.17260742 C-10.22360379 22.77142276 -7.29263335 14.35775809 -4.56005859 5.87109375 C-2.70598548 0.15758087 -2.70598548 0.15758087 0 0 Z " fill="#7F43DF" transform="translate(38.949462890625,48.886474609375)"/>
<path d="M0 0 C5.61 0 11.22 0 17 0 C19.7564636 7.77746806 21.75468314 15.66973989 23.6875 23.6875 C24.01088472 24.99288389 24.3344513 26.29822273 24.65820312 27.60351562 C24.96048828 28.85197266 25.26277344 30.10042969 25.57421875 31.38671875 C25.84838623 32.51295654 26.12255371 33.63919434 26.4050293 34.79956055 C26.99025633 37.9475873 27.11001028 40.80668786 27 44 C27.66 44 28.32 44 29 44 C29.14308594 42.63101563 29.14308594 42.63101563 29.2890625 41.234375 C30.07306567 35.76010723 31.78468883 30.53351314 33.375 25.25 C33.98794562 23.19299607 34.5999301 21.13570549 35.2109375 19.078125 C35.50838867 18.07716797 35.80583984 17.07621094 36.11230469 16.04492188 C37.47224715 11.38012473 38.73792186 6.69214329 40 2 C45.61 2 51.22 2 57 2 C58.71635161 7.3362102 60.42513218 12.67476289 62.12695312 18.015625 C62.70690974 19.83204392 63.28892686 21.64780628 63.87304688 23.46289062 C64.71246714 26.07251688 65.54444007 28.68441733 66.375 31.296875 C66.63748535 32.10743347 66.8999707 32.91799194 67.17041016 33.75311279 C67.41065918 34.51359924 67.6509082 35.27408569 67.8984375 36.05761719 C68.21820557 37.0568924 68.21820557 37.0568924 68.54443359 38.07635498 C69 40 69 40 69 44 C69.66 44 70.32 44 71 44 C71.10441406 42.80890625 71.20882812 41.6178125 71.31640625 40.390625 C72.05588239 33.75223459 73.52122359 27.27098489 74.9375 20.75 C75.20240234 19.49703125 75.46730469 18.2440625 75.74023438 16.953125 C75.99998047 15.7465625 76.25972656 14.54 76.52734375 13.296875 C76.87913696 11.66250488 76.87913696 11.66250488 77.23803711 9.99511719 C78 7 78 7 80 2 C85.61 2 91.22 2 97 2 C96.31384055 6.80311612 95.65040117 10.57574406 94.21484375 15.078125 C93.85261719 16.22700195 93.49039063 17.37587891 93.1171875 18.55957031 C92.72789062 19.77741211 92.33859375 20.99525391 91.9375 22.25 C91.12053679 24.83234161 90.30789352 27.41603107 89.49609375 30 C89.28926971 30.65703918 89.08244568 31.31407837 88.86935425 31.99102783 C86.28834906 40.22007602 83.87691347 48.49894251 81.47631836 56.78222656 C81.00850952 58.38275879 81.00850952 58.38275879 80.53125 60.015625 C80.25861328 60.95696289 79.98597656 61.89830078 79.70507812 62.86816406 C79 65 79 65 78 66 C75.30345146 66.07319621 72.63308542 66.09242537 69.9375 66.0625 C69.17888672 66.05798828 68.42027344 66.05347656 67.63867188 66.04882812 C65.75908129 66.0370068 63.87953101 66.01907078 62 66 C60.46808848 61.42912173 58.93821182 56.85756917 57.41015625 52.28540039 C56.89084832 50.73248237 56.37100028 49.17974485 55.85058594 47.62719727 C55.09946351 45.3860609 54.35033354 43.14426666 53.6015625 40.90234375 C53.3712735 40.21663803 53.1409845 39.53093231 52.90371704 38.82444763 C51.48785383 34.57734393 50.20141356 30.31282951 49 26 C44.52140321 39.28814431 40.2238001 52.62879851 36 66 C30.39 66 24.78 66 19 66 C18.38253906 63.88207031 17.76507813 61.76414062 17.12890625 59.58203125 C16.27464147 56.65850129 15.41869016 53.73546662 14.5625 50.8125 C14.34023743 50.05323212 14.11797485 49.29396423 13.88897705 48.51168823 C11.42941133 40.11927353 8.94242506 31.73751553 6.33203125 23.390625 C6.12286575 22.72161667 5.91370026 22.05260834 5.69819641 21.36332703 C4.70413277 18.19070077 3.70247377 15.0207484 2.69360352 11.8527832 C2.33838623 10.72702881 1.98316895 9.60127441 1.6171875 8.44140625 C1.30378418 7.45857666 0.99038086 6.47574707 0.66748047 5.46313477 C0 3 0 3 0 0 Z " fill="#753DD6" transform="translate(81,73)"/>
<path d="M0 0 C4.40120447 4.51702564 6.25822334 8.96799722 6.22705078 15.24926758 C6.22689972 16.26994827 6.22674866 17.29062897 6.22659302 18.34223938 C6.21627045 19.4319957 6.20594788 20.52175201 6.1953125 21.64453125 C6.1924826 22.7694548 6.18965271 23.89437836 6.18673706 25.0533905 C6.17555836 28.63986936 6.15045763 32.22609685 6.125 35.8125 C6.11496723 38.24674118 6.1058419 40.68098628 6.09765625 43.11523438 C6.07562652 49.0769195 6.04111218 55.03841716 6 61 C1.05 61 -3.9 61 -9 61 C-9.66 59.35 -10.32 57.7 -11 56 C-12.051875 56.928125 -12.051875 56.928125 -13.125 57.875 C-19.69676857 62.73239416 -27.10955711 62.90652216 -35 62 C-40.85720296 60.10755258 -45.81946279 57.43341773 -49 52 C-51.64387371 46.05128415 -51.85301321 40.11819569 -50 33.9375 C-47.70858351 28.49806273 -43.44655442 24.54938468 -38.09106445 22.1418457 C-32.14276329 19.90390362 -26.74094611 19.63213727 -20.4375 19.8125 C-19.52419922 19.82603516 -18.61089844 19.83957031 -17.66992188 19.85351562 C-15.44596741 19.88844685 -13.22332048 19.93748414 -11 20 C-12.23900434 14.73484665 -12.23900434 14.73484665 -15.5 10.5625 C-21.05868479 8.08094429 -25.94144795 8.0742148 -31.76171875 9.8359375 C-35.46894924 11.27553357 -38.68401046 12.78934031 -42 15 C-44.1875 14.625 -44.1875 14.625 -46 14 C-44.53082142 0.42276343 -44.53082142 0.42276343 -41.0078125 -2.8515625 C-38.66547287 -3.88471567 -36.51145205 -4.52038242 -34 -5 C-32.6078125 -5.37125 -32.6078125 -5.37125 -31.1875 -5.75 C-19.95496042 -6.6309835 -9.73503486 -6.27368913 0 0 Z " fill="#743DD5" transform="translate(230,78)"/>
<path d="M0 0 C5.28 0 10.56 0 16 0 C16.495 26.235 16.495 26.235 17 53 C19.64 49.7 22.28 46.4 25 43 C27.37025409 40.33834585 29.77806882 37.72705046 32.21679688 35.12890625 C34.10019719 33.10809046 35.87565178 31.19594671 37.359375 28.85791016 C39 27 39 27 41.17651367 26.54589844 C41.99869385 26.5668457 42.82087402 26.58779297 43.66796875 26.609375 C44.56064453 26.62226562 45.45332031 26.63515625 46.37304688 26.6484375 C47.30181641 26.68195313 48.23058594 26.71546875 49.1875 26.75 C50.59805664 26.77707031 50.59805664 26.77707031 52.03710938 26.8046875 C54.35909889 26.8518345 56.6790369 26.91761769 59 27 C56.54602553 30.86887867 54.08127295 34.11045499 50.75 37.25 C46.61609395 41.26091381 43.09205795 45.53235945 39.62890625 50.12890625 C39.09136719 50.74636719 38.55382812 51.36382812 38 52 C37.34 52 36.68 52 36 52 C37.91429274 54.81412217 39.83160382 57.62617367 41.75 60.4375 C42.32967529 61.28755615 42.90935059 62.1376123 43.5065918 63.01342773 C46.47982725 67.36109476 49.47537631 71.68926782 52.53515625 75.9765625 C53.08655273 76.74943604 53.63794922 77.52230957 54.20605469 78.31860352 C55.26376479 79.79602199 56.32551742 81.27055605 57.39160156 82.74194336 C61 87.78208091 61 87.78208091 61 90 C54.3482144 91.19374019 47.50377087 92.34576433 41 90 C35.55696883 85.28897953 32.3181079 78.6387316 29.14404297 72.27978516 C27.95688779 69.83632254 27.95688779 69.83632254 26.16015625 66.98046875 C25 65 25 65 25 63 C21.39095877 64.74286274 19.1694541 66.61051464 17 70 C15.64071248 76.5376582 15.89941524 83.35511932 16 90 C10.72 90 5.44 90 0 90 C0 60.3 0 30.6 0 0 Z " fill="#7C42DD" transform="translate(248,48)"/>
<path d="M0 0 C5.94 0 11.88 0 18 0 C22.09184731 8.39353295 25.58212268 16.89089533 28.875 25.625 C29.28032959 26.69234375 29.68565918 27.7596875 30.10327148 28.859375 C30.47911377 29.86742188 30.85495605 30.87546875 31.2421875 31.9140625 C31.5810498 32.8210791 31.91991211 33.7280957 32.26904297 34.66259766 C33 37 33 37 33 40 C33.66 40 34.32 40 35 40 C35.11859375 39.00274902 35.2371875 38.00549805 35.359375 36.97802734 C35.93316442 32.98093699 37.02657299 29.19262918 38.25 25.3515625 C38.46817383 24.65356537 38.68634766 23.95556824 38.91113281 23.23641968 C39.36915993 21.77512723 39.82980641 20.31465341 40.29296875 18.85498047 C41.00400342 16.61237319 41.70571855 14.3670015 42.40625 12.12109375 C42.85362492 10.69774628 43.30152267 9.27456301 43.75 7.8515625 C43.96043945 7.17872223 44.17087891 6.50588196 44.38769531 5.81265259 C45.88419645 1.11580355 45.88419645 1.11580355 47 0 C48.34267413 -0.08631874 49.68974322 -0.10706473 51.03515625 -0.09765625 C51.84404297 -0.09443359 52.65292969 -0.09121094 53.48632812 -0.08789062 C54.33646484 -0.07951172 55.18660156 -0.07113281 56.0625 -0.0625 C56.91650391 -0.05798828 57.77050781 -0.05347656 58.65039062 -0.04882812 C60.76695663 -0.03700373 62.88348685 -0.01906769 65 0 C59.73372346 15.54475488 53.77621617 30.83170708 47.75177002 46.0949707 C47.02945859 47.9253502 46.30935979 49.75660237 45.58935547 51.58789062 C44.30472244 54.83613031 43.00045095 58.07561837 41.6875 61.3125 C41.31592773 62.25295166 40.94435547 63.19340332 40.56152344 64.16235352 C36.49861503 74.02801545 30.57508279 84.29438546 20.65234375 89.1484375 C16.12024567 90.60351464 11.73120386 90.11400491 7 90 C7 85.38 7 80.76 7 76 C8.546875 75.773125 10.09375 75.54625 11.6875 75.3125 C16.53632868 74.33999481 18.92023511 73.01302698 22 69 C22.61875 68.21625 23.2375 67.4325 23.875 66.625 C25.58413217 62.63702495 24.72980695 59.13225124 23.34005737 55.0718689 C22.49792096 52.97824081 21.60292215 50.91635993 20.68359375 48.85546875 C20.34884537 48.08680984 20.01409698 47.31815094 19.66920471 46.52619934 C18.59997648 44.07636902 17.51894865 41.63195647 16.4375 39.1875 C15.73815601 37.58953222 15.03958225 35.99122712 14.34179688 34.39257812 C11.4878981 27.86718344 8.61219525 21.35213197 5.68798828 14.85791016 C5.31642105 14.03019608 4.94485382 13.20248199 4.56202698 12.34968567 C3.8497936 10.76493075 3.13437757 9.18160136 2.41539001 7.59989929 C0 2.22276691 0 2.22276691 0 0 Z " fill="#733ED4" transform="translate(385,74)"/>
<path d="M0 0 C1.68996094 0.00966797 1.68996094 0.00966797 3.4140625 0.01953125 C6.375 0.1875 6.375 0.1875 9.375 1.1875 C9.375 5.1475 9.375 9.1075 9.375 13.1875 C7.8075 13.27 6.24 13.3525 4.625 13.4375 C1.48718381 13.77875967 -0.36886975 14.0402251 -3.125 15.625 C-5.46304973 19.6191683 -5.90519506 23.62873539 -6.625 28.1875 C-2.335 28.1875 1.955 28.1875 6.375 28.1875 C6.375 32.4775 6.375 36.7675 6.375 41.1875 C1.755 41.1875 -2.865 41.1875 -7.625 41.1875 C-7.625 58.0175 -7.625 74.8475 -7.625 92.1875 C-13.235 92.1875 -18.845 92.1875 -24.625 92.1875 C-24.625 75.3575 -24.625 58.5275 -24.625 41.1875 C-28.255 41.1875 -31.885 41.1875 -35.625 41.1875 C-35.625 36.8975 -35.625 32.6075 -35.625 28.1875 C-31.665 28.1875 -27.705 28.1875 -23.625 28.1875 C-23.7796875 25.465 -23.7796875 25.465 -23.9375 22.6875 C-23.92039864 15.41942033 -21.91262013 11.54252009 -16.91015625 6.4375 C-11.60233138 1.60586949 -7.26730268 -0.09188544 0 0 Z " fill="#8347E2" transform="translate(376.625,46.8125)"/>
<path d="M0 0 C5.43547221 2.4240711 9.26921215 6.57802556 12.67578125 11.38671875 C14.68410155 17.41167964 14.86589923 24.78044897 12.05078125 30.57421875 C11.29602467 31.86731425 10.50108807 33.13747013 9.67578125 34.38671875 C9.15886719 35.17304687 8.64195312 35.959375 8.109375 36.76953125 C7.07087639 38.32602796 6.01742929 39.87271586 4.9453125 41.40625 C3.51533662 43.45847486 3.51533662 43.45847486 2.67578125 46.38671875 C-12.97975852 49.05149148 -12.97975852 49.05149148 -18.32421875 45.38671875 C-19.4427859 43.51647447 -20.32984567 41.60843317 -21.21484375 39.6171875 C-22.77631052 36.47775958 -24.86929599 33.87602741 -27.0546875 31.1484375 C-30.52136504 26.33775575 -30.03526125 20.01352621 -29.32421875 14.38671875 C-27.29306961 9.05495227 -24.5624624 4.74187069 -19.57421875 1.82421875 C-17.96546875 1.11265625 -17.96546875 1.11265625 -16.32421875 0.38671875 C-11.66051047 -1.94513539 -4.93352185 -1.30178644 0 0 Z " fill="#FBC420" transform="translate(334.32421875,2.61328125)"/>
<path d="M0 0 C5.61 0 11.22 0 17 0 C17 21.12 17 42.24 17 64 C11.39 64 5.78 64 0 64 C0 42.88 0 21.76 0 0 Z " fill="#753DD6" transform="translate(318,75)"/>
<path d="M0 0 C2.5862327 2.5862327 3.0495113 4.83330922 4.12890625 8.328125 C4.4207505 9.26806305 4.4207505 9.26806305 4.7184906 10.22698975 C5.12905804 11.55420762 5.53653838 12.88238382 5.94116211 14.21142578 C6.55660214 16.23064945 7.18273642 18.2463115 7.81054688 20.26171875 C9.53208226 25.84749683 11.03529026 31.21174156 12 37 C4.41 37 -3.18 37 -11 37 C-8.74973421 26.87380395 -8.74973421 26.87380395 -7.34375 22.51953125 C-7.04339844 21.58302734 -6.74304687 20.64652344 -6.43359375 19.68164062 C-6.12550781 18.73482422 -5.81742188 17.78800781 -5.5 16.8125 C-5.19191406 15.85408203 -4.88382813 14.89566406 -4.56640625 13.90820312 C-3.07053148 9.26328727 -1.55481444 4.62557297 0 0 Z " fill="#120825" transform="translate(46,67)"/>
<path d="M0 0 C1.28197266 -0.00386719 1.28197266 -0.00386719 2.58984375 -0.0078125 C4.88930852 0.11569746 6.85890348 0.48079313 9.0625 1.125 C8.71951043 9.95698146 8.71951043 9.95698146 6.375 14.125 C2.81924749 17.20024541 -0.4018521 17.93696148 -5 18.5 C-8.88670172 18.00382531 -10.39673413 17.11413632 -12.9375 14.125 C-13.4554685 10.86179844 -13.71090121 9.19424573 -12.9375 6.125 C-9.10415022 1.25560974 -6.04766294 -0.01818846 0 0 Z " fill="#110824" transform="translate(209.9375,108.875)"/>
<path d="M0 0 C5.94 0 11.88 0 18 0 C18 8.25 18 8.25 15 12 C11.79062591 14.32402951 8.88493979 14.47570691 5 14 C2.1875 12.4375 2.1875 12.4375 0 10 C-0.96101954 6.08727759 -1.27782434 3.83347302 0 0 Z " fill="#F3BA17" transform="translate(318,52)"/>
<path d="M0 0 C5.94 0 11.88 0 18 0 C18 1.65 18 3.3 18 5 C11.94932758 6.76070375 5.07663119 6.62043498 -1 5 C-0.67 3.35 -0.34 1.7 0 0 Z " fill="#3A1B22" transform="translate(318,52)"/>
<path d="M0 0 C0 1.65 0 3.3 0 5 C-3.4019487 7.09350689 -6.05272412 7.17942163 -10 7 C-9.6875 4.625 -9.6875 4.625 -9 2 C-5.5647952 -0.29013653 -4.014669 -0.17842973 0 0 Z " fill="#FDDB7E" transform="translate(321,9)"/>
<path d="M0 0 C0.92039062 0.04189453 1.84078125 0.08378906 2.7890625 0.12695312 C3.72492188 0.14951172 4.66078125 0.17207031 5.625 0.1953125 C7.93131924 0.25414717 10.23437088 0.33628167 12.5390625 0.43945312 C11.5490625 1.42945312 10.5590625 2.41945313 9.5390625 3.43945312 C9.2090625 3.10945313 8.8790625 2.77945313 8.5390625 2.43945312 C2.64972546 1.58193977 -3.11770209 0.90026908 -8.25 4.27148438 C-10.51448853 6.55490675 -12.51463099 8.88145028 -14.4609375 11.43945312 C-15.3065625 12.45007813 -16.1521875 13.46070312 -17.0234375 14.50195312 C-17.4978125 15.14132813 -17.9721875 15.78070313 -18.4609375 16.43945312 C-19.1209375 16.10945313 -19.7809375 15.77945313 -20.4609375 15.43945312 C-19.85765625 14.77558594 -19.254375 14.11171875 -18.6328125 13.42773438 C-17.83359375 12.54472656 -17.034375 11.66171875 -16.2109375 10.75195312 C-15.42203125 9.88183594 -14.633125 9.01171875 -13.8203125 8.11523438 C-11.40286695 5.54376009 -11.40286695 5.54376009 -9.8046875 2.62695312 C-6.58978241 -0.37362496 -4.27569798 -0.0774583 0 0 Z " fill="#8748E0" transform="translate(294.4609375,74.560546875)"/>
<path d="M0 0 C5.61 0 11.22 0 17 0 C16.67 0.99 16.34 1.98 16 3 C11.05 3 6.1 3 1 3 C0.67 2.01 0.34 1.02 0 0 Z " fill="#DFA915" transform="translate(318,52)"/>
<path d="M0 0 C6.27 0 12.54 0 19 0 C18.67 0.99 18.34 1.98 18 3 C12.39 3 6.78 3 1 3 C0.67 2.01 0.34 1.02 0 0 Z " fill="#422021" transform="translate(317,49)"/>
<path d="M0 0 C4.62 0 9.24 0 14 0 C14.33 0.99 14.66 1.98 15 3 C13.53626953 2.98259766 13.53626953 2.98259766 12.04296875 2.96484375 C10.77066406 2.95582031 9.49835938 2.94679687 8.1875 2.9375 C6.92292969 2.92589844 5.65835937 2.91429687 4.35546875 2.90234375 C1.00394763 2.83840884 1.00394763 2.83840884 -2 4 C-1.34 2.68 -0.68 1.36 0 0 Z " fill="#381D24" transform="translate(319,0)"/>
<path d="M0 0 C-3.465 1.485 -3.465 1.485 -7 3 C-7 6.63 -7 10.26 -7 14 C-7.66 14 -8.32 14 -9 14 C-9 9.38 -9 4.76 -9 0 C-2.25 -1.125 -2.25 -1.125 0 0 Z " fill="#5436B8" transform="translate(401,150)"/>
<path d="M0 0 C5.94 0 11.88 0 18 0 C17.01 1.485 17.01 1.485 16 3 C16 2.34 16 1.68 16 1 C13.72844502 1.08702126 11.45769257 1.19519522 9.1875 1.3125 C7.29064453 1.39951172 7.29064453 1.39951172 5.35546875 1.48828125 C2.03396307 1.7113494 2.03396307 1.7113494 0.05078125 3.54296875 C-0.46935547 4.26419922 -0.46935547 4.26419922 -1 5 C-0.67 3.35 -0.34 1.7 0 0 Z " fill="#9653E6" transform="translate(432,74)"/>
<path d="M0 0 C6.27 0 12.54 0 19 0 C18.01 0.99 17.02 1.98 16 3 C15.67 2.67 15.34 2.34 15 2 C12.46950598 1.92686433 9.96695163 1.90752473 7.4375 1.9375 C6.72658203 1.94201172 6.01566406 1.94652344 5.28320312 1.95117188 C3.52209987 1.96299136 1.76103964 1.98092737 0 2 C0 1.34 0 0.68 0 0 Z " fill="#9953F4" transform="translate(288,75)"/>
<path d="M0 0 C3.96 0.33 7.92 0.66 12 1 C12 1.33 12 1.66 12 2 C5.565 2.495 5.565 2.495 -1 3 C-0.67 2.01 -0.34 1.02 0 0 Z " fill="#673519" transform="translate(318,54)"/>
</svg>
